<mxfile host="app.diagrams.net" modified="2024-01-22T18:26:12.346Z" agent="Mozilla/5.0 (X11; Linux x86_64) AppleWebKit/537.36 (KHTML, like Gecko) Chrome/119.0.0.0 Safari/537.36" etag="eF1HmAXi-afv7_Z1MSLt" version="22.1.21" type="device">
  <diagram name="Pagina-1" id="O2fERhubRZdrrpHtS-ki">
    <mxGraphModel dx="1728" dy="971" grid="1" gridSize="10" guides="1" tooltips="1" connect="1" arrows="1" fold="1" page="1" pageScale="1" pageWidth="827" pageHeight="1169" math="0" shadow="0">
      <root>
        <mxCell id="0" />
        <mxCell id="1" parent="0" />
        <mxCell id="-qL_JGQG4ytYLZZ28d-E-1" value="User" style="shape=umlActor;verticalLabelPosition=bottom;verticalAlign=top;html=1;outlineConnect=0;" vertex="1" parent="1">
          <mxGeometry x="390" y="590" width="30" height="60" as="geometry" />
        </mxCell>
        <mxCell id="-qL_JGQG4ytYLZZ28d-E-23" style="rounded=0;orthogonalLoop=1;jettySize=auto;html=1;exitX=0.5;exitY=0;exitDx=0;exitDy=0;entryX=0;entryY=1;entryDx=0;entryDy=0;dashed=1;dashPattern=8 8;endArrow=open;endFill=0;" edge="1" parent="1" source="-qL_JGQG4ytYLZZ28d-E-2" target="-qL_JGQG4ytYLZZ28d-E-11">
          <mxGeometry relative="1" as="geometry" />
        </mxCell>
        <mxCell id="-qL_JGQG4ytYLZZ28d-E-25" value="«include»" style="edgeLabel;html=1;align=center;verticalAlign=middle;resizable=0;points=[];" vertex="1" connectable="0" parent="-qL_JGQG4ytYLZZ28d-E-23">
          <mxGeometry x="-0.1102" y="-3" relative="1" as="geometry">
            <mxPoint as="offset" />
          </mxGeometry>
        </mxCell>
        <mxCell id="-qL_JGQG4ytYLZZ28d-E-2" value="Create Booking" style="ellipse;whiteSpace=wrap;html=1;" vertex="1" parent="1">
          <mxGeometry x="260" y="490" width="120" height="40" as="geometry" />
        </mxCell>
        <mxCell id="-qL_JGQG4ytYLZZ28d-E-3" value="Cancel Booking" style="ellipse;whiteSpace=wrap;html=1;" vertex="1" parent="1">
          <mxGeometry x="450" y="490" width="120" height="40" as="geometry" />
        </mxCell>
        <mxCell id="-qL_JGQG4ytYLZZ28d-E-4" value="Create Customer" style="ellipse;whiteSpace=wrap;html=1;" vertex="1" parent="1">
          <mxGeometry x="580" y="550" width="120" height="40" as="geometry" />
        </mxCell>
        <mxCell id="-qL_JGQG4ytYLZZ28d-E-5" value="Create Flight" style="ellipse;whiteSpace=wrap;html=1;" vertex="1" parent="1">
          <mxGeometry x="580" y="640" width="120" height="40" as="geometry" />
        </mxCell>
        <mxCell id="-qL_JGQG4ytYLZZ28d-E-6" value="Create Hotel" style="ellipse;whiteSpace=wrap;html=1;" vertex="1" parent="1">
          <mxGeometry x="510" y="710" width="120" height="40" as="geometry" />
        </mxCell>
        <mxCell id="-qL_JGQG4ytYLZZ28d-E-7" value="Create Payment Strategy" style="ellipse;whiteSpace=wrap;html=1;" vertex="1" parent="1">
          <mxGeometry x="345" y="730" width="120" height="40" as="geometry" />
        </mxCell>
        <mxCell id="-qL_JGQG4ytYLZZ28d-E-8" value="Pay Booking" style="ellipse;whiteSpace=wrap;html=1;" vertex="1" parent="1">
          <mxGeometry x="190" y="710" width="120" height="40" as="geometry" />
        </mxCell>
        <mxCell id="-qL_JGQG4ytYLZZ28d-E-9" value="Create Mediator" style="ellipse;whiteSpace=wrap;html=1;" vertex="1" parent="1">
          <mxGeometry x="110" y="640" width="120" height="40" as="geometry" />
        </mxCell>
        <mxCell id="-qL_JGQG4ytYLZZ28d-E-10" value="Sort Bookings" style="ellipse;whiteSpace=wrap;html=1;" vertex="1" parent="1">
          <mxGeometry x="110" y="550" width="120" height="40" as="geometry" />
        </mxCell>
        <mxCell id="-qL_JGQG4ytYLZZ28d-E-11" value="Notify Customers" style="ellipse;whiteSpace=wrap;html=1;" vertex="1" parent="1">
          <mxGeometry x="345" y="400" width="120" height="40" as="geometry" />
        </mxCell>
        <mxCell id="-qL_JGQG4ytYLZZ28d-E-12" value="" style="endArrow=none;html=1;rounded=0;entryX=0.5;entryY=1;entryDx=0;entryDy=0;" edge="1" parent="1" target="-qL_JGQG4ytYLZZ28d-E-2">
          <mxGeometry width="50" height="50" relative="1" as="geometry">
            <mxPoint x="390" y="580" as="sourcePoint" />
            <mxPoint x="460" y="500" as="targetPoint" />
          </mxGeometry>
        </mxCell>
        <mxCell id="-qL_JGQG4ytYLZZ28d-E-13" value="" style="endArrow=none;html=1;rounded=0;entryX=0;entryY=1;entryDx=0;entryDy=0;" edge="1" parent="1" target="-qL_JGQG4ytYLZZ28d-E-3">
          <mxGeometry width="50" height="50" relative="1" as="geometry">
            <mxPoint x="420" y="580" as="sourcePoint" />
            <mxPoint x="415" y="520" as="targetPoint" />
          </mxGeometry>
        </mxCell>
        <mxCell id="-qL_JGQG4ytYLZZ28d-E-14" value="" style="endArrow=none;html=1;rounded=0;entryX=0;entryY=0.5;entryDx=0;entryDy=0;" edge="1" parent="1" target="-qL_JGQG4ytYLZZ28d-E-4">
          <mxGeometry width="50" height="50" relative="1" as="geometry">
            <mxPoint x="430" y="600" as="sourcePoint" />
            <mxPoint x="425" y="530" as="targetPoint" />
          </mxGeometry>
        </mxCell>
        <mxCell id="-qL_JGQG4ytYLZZ28d-E-15" value="" style="endArrow=none;html=1;rounded=0;entryX=0;entryY=0.5;entryDx=0;entryDy=0;" edge="1" parent="1" target="-qL_JGQG4ytYLZZ28d-E-5">
          <mxGeometry width="50" height="50" relative="1" as="geometry">
            <mxPoint x="435" y="620" as="sourcePoint" />
            <mxPoint x="435" y="540" as="targetPoint" />
          </mxGeometry>
        </mxCell>
        <mxCell id="-qL_JGQG4ytYLZZ28d-E-16" value="" style="endArrow=none;html=1;rounded=0;entryX=0;entryY=0;entryDx=0;entryDy=0;" edge="1" parent="1" target="-qL_JGQG4ytYLZZ28d-E-6">
          <mxGeometry width="50" height="50" relative="1" as="geometry">
            <mxPoint x="430" y="640" as="sourcePoint" />
            <mxPoint x="445" y="550" as="targetPoint" />
          </mxGeometry>
        </mxCell>
        <mxCell id="-qL_JGQG4ytYLZZ28d-E-17" value="" style="endArrow=none;html=1;rounded=0;exitX=0.5;exitY=0;exitDx=0;exitDy=0;" edge="1" parent="1" source="-qL_JGQG4ytYLZZ28d-E-7">
          <mxGeometry width="50" height="50" relative="1" as="geometry">
            <mxPoint x="455" y="630" as="sourcePoint" />
            <mxPoint x="405" y="680" as="targetPoint" />
          </mxGeometry>
        </mxCell>
        <mxCell id="-qL_JGQG4ytYLZZ28d-E-18" value="" style="endArrow=none;html=1;rounded=0;exitX=1;exitY=0;exitDx=0;exitDy=0;" edge="1" parent="1" source="-qL_JGQG4ytYLZZ28d-E-8">
          <mxGeometry width="50" height="50" relative="1" as="geometry">
            <mxPoint x="465" y="640" as="sourcePoint" />
            <mxPoint x="370" y="650" as="targetPoint" />
          </mxGeometry>
        </mxCell>
        <mxCell id="-qL_JGQG4ytYLZZ28d-E-19" value="" style="endArrow=none;html=1;rounded=0;entryX=1;entryY=0.5;entryDx=0;entryDy=0;" edge="1" parent="1" target="-qL_JGQG4ytYLZZ28d-E-9">
          <mxGeometry width="50" height="50" relative="1" as="geometry">
            <mxPoint x="380" y="620" as="sourcePoint" />
            <mxPoint x="360" y="550" as="targetPoint" />
          </mxGeometry>
        </mxCell>
        <mxCell id="-qL_JGQG4ytYLZZ28d-E-20" value="" style="endArrow=none;html=1;rounded=0;entryX=1;entryY=0.5;entryDx=0;entryDy=0;" edge="1" parent="1" target="-qL_JGQG4ytYLZZ28d-E-10">
          <mxGeometry width="50" height="50" relative="1" as="geometry">
            <mxPoint x="370" y="600" as="sourcePoint" />
            <mxPoint x="370" y="560" as="targetPoint" />
          </mxGeometry>
        </mxCell>
        <mxCell id="-qL_JGQG4ytYLZZ28d-E-24" style="rounded=0;orthogonalLoop=1;jettySize=auto;html=1;exitX=0.5;exitY=0;exitDx=0;exitDy=0;entryX=1;entryY=1;entryDx=0;entryDy=0;dashed=1;dashPattern=8 8;endArrow=open;endFill=0;" edge="1" parent="1" source="-qL_JGQG4ytYLZZ28d-E-3" target="-qL_JGQG4ytYLZZ28d-E-11">
          <mxGeometry relative="1" as="geometry">
            <mxPoint x="330" y="500" as="sourcePoint" />
            <mxPoint x="415" y="450" as="targetPoint" />
          </mxGeometry>
        </mxCell>
        <mxCell id="-qL_JGQG4ytYLZZ28d-E-26" value="«include»" style="edgeLabel;html=1;align=center;verticalAlign=middle;resizable=0;points=[];" vertex="1" connectable="0" parent="-qL_JGQG4ytYLZZ28d-E-24">
          <mxGeometry x="-0.1441" relative="1" as="geometry">
            <mxPoint as="offset" />
          </mxGeometry>
        </mxCell>
      </root>
    </mxGraphModel>
  </diagram>
</mxfile>
